<svg width="95" height="94" viewBox="0 0 95 94" fill="none" xmlns="http://www.w3.org/2000/svg">
<path d="M28.4175 40.8553C28.4175 41.8104 28.5187 42.5848 28.6956 43.1527C28.8979 43.7205 29.1506 44.34 29.5045 45.0111C29.6309 45.2176 29.6814 45.4241 29.6814 45.6048C29.6814 45.8629 29.5297 46.1211 29.2012 46.3791L27.6088 47.4633C27.3812 47.6182 27.1537 47.6955 26.9515 47.6955C26.6987 47.6955 26.446 47.5666 26.1933 47.3342C25.8393 46.947 25.536 46.534 25.2832 46.1211C25.0305 45.6822 24.7778 45.1918 24.4997 44.5981C22.5281 46.9728 20.0509 48.1602 17.0683 48.1602C14.945 48.1602 13.2515 47.5407 12.0129 46.3018C10.7744 45.0627 10.1425 43.4108 10.1425 41.3458C10.1425 39.1517 10.9008 37.3707 12.4426 36.0285C13.9845 34.6862 16.032 34.0151 18.6354 34.0151C19.4948 34.0151 20.3796 34.0926 21.3148 34.2217C22.2501 34.3507 23.2106 34.5572 24.2217 34.7895V32.9052C24.2217 30.9435 23.8172 29.5754 23.0336 28.7752C22.2248 27.9751 20.8598 27.5879 18.9135 27.5879C18.0288 27.5879 17.1189 27.6911 16.1836 27.9235C15.2484 28.1558 14.3384 28.4397 13.4537 28.8011C13.0493 28.9818 12.746 29.085 12.569 29.1366C12.3921 29.1883 12.2657 29.214 12.1646 29.214C11.8107 29.214 11.6338 28.9559 11.6338 28.4139V27.1491C11.6338 26.7361 11.6843 26.4263 11.8107 26.2456C11.9371 26.065 12.1646 25.8843 12.5185 25.7036C13.4032 25.239 14.4648 24.8518 15.7034 24.542C16.9419 24.2065 18.2563 24.0516 19.6465 24.0516C22.6545 24.0516 24.8535 24.7485 26.269 26.1424C27.6593 27.5363 28.367 29.6529 28.367 32.4922V40.8553H28.4175ZM18.1552 44.7788C18.9894 44.7788 19.8488 44.6239 20.7587 44.3142C21.6687 44.0044 22.4775 43.4366 23.16 42.6622C23.5644 42.1718 23.8677 41.6297 24.0194 41.0103C24.171 40.3908 24.2722 39.6421 24.2722 38.7645V37.6805C23.5392 37.4997 22.7556 37.3449 21.9468 37.2417C21.1379 37.1384 20.3543 37.0868 19.5707 37.0868C17.8772 37.0868 16.6386 37.4224 15.8044 38.1193C14.9703 38.8162 14.5659 39.7971 14.5659 41.0876C14.5659 42.3008 14.8692 43.2043 15.5011 43.8238C16.1078 44.4691 16.9925 44.7788 18.1552 44.7788ZM38.4525 47.5666C37.9975 47.5666 37.6942 47.4891 37.4919 47.3084C37.2897 47.1535 37.1128 46.7922 36.9612 46.3018L31.0211 26.3489C30.8695 25.8327 30.7936 25.4971 30.7936 25.3164C30.7936 24.9035 30.9958 24.6711 31.4002 24.6711H33.8774C34.3576 24.6711 34.6862 24.7485 34.8632 24.9292C35.0654 25.0841 35.217 25.4455 35.3687 25.9359L39.6152 43.0236L43.5584 25.9359C43.6848 25.4196 43.8364 25.0841 44.0386 24.9292C44.2409 24.7744 44.5947 24.6711 45.0498 24.6711H47.0719C47.5521 24.6711 47.8808 24.7485 48.0829 24.9292C48.2851 25.0841 48.4621 25.4455 48.5632 25.9359L52.557 43.23L56.9298 25.9359C57.0815 25.4196 57.2584 25.0841 57.4353 24.9292C57.6375 24.7744 57.9662 24.6711 58.4212 24.6711H60.7719C61.1763 24.6711 61.4038 24.8776 61.4038 25.3164C61.4038 25.4455 61.3785 25.5745 61.3533 25.7295C61.328 25.8843 61.2774 26.0908 61.1763 26.3747L55.0846 46.3275C54.9329 46.8438 54.756 47.1794 54.5538 47.3342C54.3516 47.4891 54.023 47.5923 53.5933 47.5923H51.4195C50.9392 47.5923 50.6106 47.5149 50.4084 47.3342C50.2062 47.1535 50.0293 46.8179 49.9281 46.3018L46.0102 29.6529L42.1176 46.2759C41.9912 46.7922 41.8396 47.1278 41.6374 47.3084C41.4351 47.4891 41.0813 47.5666 40.6263 47.5666H38.4525ZM70.9331 48.2634C69.6188 48.2634 68.3044 48.1086 67.0406 47.7988C65.7767 47.4891 64.7909 47.1535 64.1337 46.7663C63.7292 46.534 63.4512 46.2759 63.3501 46.0436C63.249 45.8113 63.1985 45.5531 63.1985 45.3208V44.0044C63.1985 43.4624 63.4007 43.2043 63.7799 43.2043C63.9315 43.2043 64.0832 43.23 64.2348 43.2817C64.3865 43.3333 64.614 43.4366 64.8667 43.5399C65.7261 43.927 66.6614 44.2367 67.6472 44.4432C68.6582 44.6498 69.644 44.753 70.6551 44.753C72.2475 44.753 73.4861 44.4691 74.3455 43.9012C75.2049 43.3333 75.6599 42.5073 75.6599 41.4491C75.6599 40.7263 75.4324 40.1326 74.9775 39.6421C74.5225 39.1517 73.663 38.7129 72.4245 38.3L68.7594 37.1384C66.9142 36.5447 65.5492 35.6671 64.715 34.5056C63.8809 33.3698 63.4512 32.105 63.4512 30.7628C63.4512 29.6787 63.6787 28.7236 64.1337 27.8976C64.5887 27.0716 65.1954 26.3489 65.9536 25.7811C66.7119 25.1874 67.5713 24.7485 68.5825 24.4388C69.5935 24.1291 70.6551 24 71.7673 24C72.3234 24 72.9047 24.0258 73.4608 24.1032C74.0422 24.1807 74.573 24.2839 75.1039 24.3872C75.6094 24.5163 76.0896 24.6453 76.5446 24.8002C76.9996 24.9551 77.3534 25.1099 77.6062 25.2648C77.9601 25.4713 78.2129 25.6778 78.3646 25.9101C78.5162 26.1166 78.592 26.4005 78.592 26.7619V27.9751C78.592 28.5171 78.3898 28.8011 78.0107 28.8011C77.8085 28.8011 77.4798 28.6978 77.0501 28.4913C75.6093 27.8202 73.9917 27.4847 72.197 27.4847C70.7562 27.4847 69.6188 27.717 68.8352 28.2074C68.0516 28.6978 67.6472 29.4463 67.6472 30.5047C67.6472 31.2274 67.9 31.8469 68.4054 32.3374C68.911 32.8278 69.8463 33.3182 71.1859 33.757L74.7752 34.9186C76.5951 35.5122 77.9095 36.3382 78.6931 37.3965C79.4767 38.4548 79.8559 39.668 79.8559 41.0103C79.8559 42.1201 79.6284 43.1268 79.1987 44.0044C78.7437 44.882 78.137 45.6564 77.3535 46.2759C76.5699 46.9212 75.6346 47.3858 74.5478 47.7214C73.4103 48.0827 72.2223 48.2634 70.9331 48.2634Z" fill="white"/>
<path fill-rule="evenodd" clip-rule="evenodd" d="M75.7104 60.8081C67.3943 67.0804 55.312 70.4103 44.9233 70.4103C30.3639 70.4103 17.2452 64.9122 7.33669 55.7747C6.55311 55.0519 7.26086 54.0711 8.1961 54.639C18.9135 60.9888 32.1332 64.8348 45.808 64.8348C55.034 64.8348 65.1699 62.873 74.4971 58.8463C75.8873 58.201 77.0753 59.7756 75.7104 60.8081Z" fill="white"/>
<path fill-rule="evenodd" clip-rule="evenodd" d="M79.1733 56.7814C78.1118 55.3875 72.1465 56.1103 69.4418 56.4458C68.633 56.5491 68.5066 55.8263 69.2396 55.2843C73.9917 51.8771 81.8021 52.8579 82.712 53.9936C83.6222 55.1552 82.4593 63.1312 78.0106 66.9513C77.3281 67.5451 76.671 67.2353 76.9743 66.4609C77.9854 63.9056 80.235 58.1494 79.1733 56.7814Z" fill="white"/>
</svg>
