<svg width="95" height="94" viewBox="0 0 95 94" fill="none" xmlns="http://www.w3.org/2000/svg">
<g clip-path="url(#clip0_24_38)">
<path d="M25.2252 38.2189C25.2252 39.4398 25.3546 40.4297 25.5807 41.1556C25.8393 41.8815 26.1624 42.6734 26.6147 43.5313C26.7763 43.7953 26.8409 44.0593 26.8409 44.2903C26.8409 44.6203 26.647 44.9502 26.227 45.2801L24.1913 46.666C23.9005 46.864 23.6097 46.9629 23.3512 46.9629C23.028 46.9629 22.7049 46.7981 22.3819 46.501C21.9294 46.0061 21.5417 45.4781 21.2185 44.9502C20.8954 44.3892 20.5724 43.7623 20.2169 43.0034C17.6965 46.0391 14.5299 47.5569 10.7171 47.5569C8.00284 47.5569 5.83793 46.765 4.25463 45.1812C2.67133 43.5973 1.86353 41.4856 1.86353 38.8458C1.86353 36.0411 2.83289 33.7644 4.80394 32.0485C6.77499 30.3327 9.39233 29.4748 12.7204 29.4748C13.819 29.4748 14.95 29.5738 16.1456 29.7388C17.3411 29.9038 18.569 30.1677 19.8615 30.4647V28.0559C19.8615 25.5482 19.3444 23.7993 18.3428 22.7764C17.3088 21.7536 15.5639 21.2586 13.0759 21.2586C11.9449 21.2586 10.7817 21.3905 9.58615 21.6876C8.39058 21.9845 7.22736 22.3474 6.09644 22.8095C5.57943 23.0404 5.19168 23.1724 4.9655 23.2384C4.73932 23.3044 4.57775 23.3374 4.44851 23.3374C3.99613 23.3374 3.76995 23.0074 3.76995 22.3145V20.6977C3.76995 20.1698 3.83458 19.7737 3.99613 19.5427C4.1577 19.3118 4.44851 19.0808 4.90087 18.8498C6.03181 18.2559 7.38892 17.7609 8.97224 17.365C10.5555 16.9361 12.2357 16.738 14.013 16.738C17.8581 16.738 20.6692 17.629 22.4787 19.4108C24.2559 21.1926 25.1606 23.8983 25.1606 27.528V38.2189H25.2252ZM12.1065 43.2344C13.1729 43.2344 14.2715 43.0364 15.4347 42.6404C16.5979 42.2445 17.6319 41.5185 18.5044 40.5286C19.0213 39.9017 19.4091 39.2088 19.603 38.4169C19.7968 37.625 19.9261 36.668 19.9261 35.5461V34.1603C18.9891 33.9293 17.9873 33.7313 16.9534 33.5994C15.9194 33.4673 14.9176 33.4014 13.916 33.4014C11.7511 33.4014 10.1678 33.8304 9.10145 34.7213C8.03519 35.6122 7.51817 36.866 7.51817 38.5158C7.51817 40.0667 7.90588 41.2216 8.71371 42.0135C9.48919 42.8384 10.6202 43.2344 12.1065 43.2344ZM38.0533 46.7981C37.4716 46.7981 37.0839 46.699 36.8254 46.4681C36.5668 46.2701 36.3407 45.8081 36.1469 45.1812L28.5534 19.6748C28.3596 19.0148 28.2627 18.5858 28.2627 18.3549C28.2627 17.827 28.5212 17.5299 29.0381 17.5299H32.2048C32.8187 17.5299 33.2388 17.629 33.4649 17.8599C33.7235 18.0579 33.9173 18.5199 34.1112 19.1468L39.5396 40.9906L44.5804 19.1468C44.7419 18.4868 44.9357 18.0579 45.1943 17.8599C45.4528 17.662 45.9051 17.5299 46.4868 17.5299H49.0718C49.6857 17.5299 50.1058 17.629 50.3642 17.8599C50.6227 18.0579 50.8489 18.5199 50.9782 19.1468L56.0835 41.2545L61.6736 19.1468C61.8674 18.4868 62.0935 18.0579 62.3197 17.8599C62.5782 17.662 62.9983 17.5299 63.58 17.5299H66.585C67.102 17.5299 67.3928 17.7939 67.3928 18.3549C67.3928 18.5199 67.3604 18.6849 67.3282 18.8829C67.2958 19.0808 67.2312 19.3448 67.102 19.7077L59.3148 45.2142C59.1208 45.8741 58.8947 46.3031 58.6361 46.501C58.3777 46.699 57.9576 46.831 57.4083 46.831H54.6294C54.0155 46.831 53.5954 46.732 53.337 46.501C53.0785 46.2701 52.8523 45.8411 52.723 45.1812L47.7146 23.8983L42.7385 45.1482C42.577 45.8081 42.3831 46.2371 42.1246 46.4681C41.8661 46.699 41.4137 46.7981 40.8321 46.7981H38.0533ZM79.5745 47.6889C77.8943 47.6889 76.214 47.4909 74.5985 47.095C72.9828 46.699 71.7226 46.2701 70.8825 45.7751C70.3655 45.4782 70.0101 45.1482 69.8808 44.8512C69.7516 44.5542 69.687 44.2242 69.687 43.9273V42.2445C69.687 41.5516 69.9455 41.2216 70.4302 41.2216C70.624 41.2216 70.8179 41.2545 71.0117 41.3206C71.2057 41.3866 71.4965 41.5185 71.8196 41.6506C72.9182 42.1454 74.1138 42.5414 75.3739 42.8054C76.6664 43.0694 77.9266 43.2014 79.2191 43.2014C81.2547 43.2014 82.8381 42.8384 83.9367 42.1125C85.0353 41.3866 85.6169 40.3307 85.6169 38.9778C85.6169 38.0539 85.3261 37.295 84.7445 36.668C84.1628 36.0411 83.0642 35.4801 81.4809 34.9522L76.7957 33.4673C74.4369 32.7085 72.692 31.5866 71.6257 30.1017C70.5594 28.6498 70.0101 27.033 70.0101 25.3172C70.0101 23.9313 70.3009 22.7105 70.8825 21.6545C71.4641 20.5986 72.2397 19.6748 73.209 18.9489C74.1784 18.1899 75.277 17.629 76.5695 17.233C77.862 16.837 79.2191 16.6721 80.6408 16.6721C81.3517 16.6721 82.0948 16.7051 82.8057 16.804C83.5489 16.903 84.2275 17.035 84.9061 17.167C85.5523 17.332 86.1662 17.497 86.7478 17.6949C87.3295 17.893 87.7818 18.0909 88.1049 18.2889C88.5573 18.5529 88.8804 18.8168 89.0743 19.1138C89.2682 19.3777 89.3651 19.7408 89.3651 20.2027V21.7536C89.3651 22.4465 89.1066 22.8095 88.622 22.8095C88.3635 22.8095 87.9434 22.6774 87.3941 22.4135C85.5522 21.5555 83.4843 21.1266 81.1901 21.1266C79.3483 21.1266 77.8943 21.4236 76.8926 22.0505C75.8909 22.6774 75.3739 23.6343 75.3739 24.9873C75.3739 25.9111 75.6971 26.703 76.3432 27.33C76.9895 27.9569 78.1851 28.5839 79.8976 29.1448L84.486 30.6297C86.8124 31.3886 88.4927 32.4445 89.4943 33.7973C90.4961 35.1502 90.9808 36.701 90.9808 38.4169C90.9808 39.8357 90.6899 41.1226 90.1406 42.2445C89.559 43.3663 88.7835 44.3563 87.7818 45.1482C86.7802 45.9731 85.5846 46.567 84.1952 46.996C82.7411 47.4579 81.2225 47.6889 79.5745 47.6889Z" fill="white"/>
<path fill-rule="evenodd" clip-rule="evenodd" d="M85.6814 63.7252C75.0507 71.7434 59.6054 76 46.3251 76C27.7133 76 10.9433 68.9717 -1.72316 57.2909C-2.72484 56.3669 -1.8201 55.1131 -0.624547 55.839C13.0759 63.9562 29.9752 68.8727 47.4561 68.8727C59.25 68.8727 72.2072 66.3649 84.1305 61.2174C85.9076 60.3925 87.4263 62.4053 85.6814 63.7252Z" fill="white"/>
<path fill-rule="evenodd" clip-rule="evenodd" d="M90.1083 58.5777C88.7512 56.7959 81.1255 57.7198 77.6681 58.1487C76.6341 58.2808 76.4726 57.3568 77.4096 56.6639C83.4843 52.3083 93.4687 53.5622 94.6319 55.014C95.7954 56.4989 94.3089 66.6949 88.6219 71.5783C87.7495 72.3373 86.9094 71.9414 87.2971 70.9514C88.5897 67.6848 91.4654 60.3265 90.1083 58.5777Z" fill="white"/>
</g>
<defs>
<clipPath id="clip0_24_38">
<rect width="100" height="100" fill="white" transform="translate(-5 -5)"/>
</clipPath>
</defs>
</svg>
