<svg width="512" height="368" viewBox="0 0 512 368" fill="none" xmlns="http://www.w3.org/2000/svg">
<g clip-path="url(#clip0_32_10)">
<path d="M512 0H-3V368H512V0Z" fill="#32AB45"/>
<path d="M254.5 55L61 186.745L254.5 313L448 186.745L254.5 55Z" fill="#FFE70E"/>
<path d="M329 184C329 224.317 295.645 257 254.5 257C213.355 257 180 224.317 180 184C180 143.683 213.355 111 254.5 111C295.645 111 329 143.683 329 184Z" fill="#2A2FAF"/>
<path fill-rule="evenodd" clip-rule="evenodd" d="M192.548 145.925C200.845 144.011 209.488 143 218.367 143C265.081 143 305.254 170.993 323 211.109C318.71 221.907 311.92 231.441 303.344 239C294.949 199.809 260.091 170.424 218.367 170.424C205.383 170.424 193.064 173.269 182 178.37C182.923 166.542 186.662 155.504 192.548 145.925Z" fill="#FBFBFB"/>
</g>
<defs>
<clipPath id="clip0_32_10">
<rect width="512" height="368" fill="white"/>
</clipPath>
</defs>
</svg>
