<svg width="90" height="68" viewBox="0 0 90 68" fill="none" xmlns="http://www.w3.org/2000/svg">
<path d="M89.1131 28.2132C88.8693 28.0219 86.5912 26.325 81.7856 26.325C80.5162 26.3307 79.2506 26.4375 77.9999 26.6457C77.0699 20.3569 71.9643 17.4019 71.7281 17.265L70.4381 16.53L69.5887 17.7375C68.5256 19.3613 67.5862 21.0375 67.1306 22.9182C66.27 26.5088 66.7931 29.88 68.6418 32.7619C66.4068 33.99 62.5987 34.0988 61.875 34.125H2.9662C1.41745 34.1269 0.161202 35.3625 0.151827 36.8888C0.0824519 42.0132 0.813702 47.3007 2.60058 52.1119C4.64245 57.3957 7.68183 61.2882 11.6343 63.6694C16.0631 66.345 23.2593 67.875 31.4175 67.875C35.1018 67.8863 38.7806 67.5582 42.4031 66.8925C47.4393 65.9794 52.2862 64.2432 56.7412 61.755C60.4125 59.6569 63.7162 56.9888 66.5268 53.8519C71.2237 48.6057 74.0212 42.765 76.1025 37.5732C76.3818 37.5732 76.6612 37.5732 76.9312 37.5732C82.0743 37.5732 85.2356 35.5425 86.9793 33.8419C88.1381 32.7563 89.0437 31.4344 89.6306 29.97L90 28.905L89.1131 28.2132Z" fill="white"/>
<path d="M15 32.25H9.375C8.34 32.25 7.5 31.41 7.5 30.375V24.75C7.5 23.715 8.34 22.875 9.375 22.875H15C16.035 22.875 16.875 23.715 16.875 24.75V30.375C16.875 31.41 16.035 32.25 15 32.25Z" fill="white"/>
<path d="M26.25 32.25H20.625C19.59 32.25 18.75 31.41 18.75 30.375V24.75C18.75 23.715 19.59 22.875 20.625 22.875H26.25C27.285 22.875 28.125 23.715 28.125 24.75V30.375C28.125 31.41 27.285 32.25 26.25 32.25Z" fill="white"/>
<path d="M37.5 32.25H31.875C30.84 32.25 30 31.41 30 30.375V24.75C30 23.715 30.84 22.875 31.875 22.875H37.5C38.535 22.875 39.375 23.715 39.375 24.75V30.375C39.375 31.41 38.535 32.25 37.5 32.25Z" fill="white"/>
<path d="M48.75 32.25H43.125C42.09 32.25 41.25 31.41 41.25 30.375V24.75C41.25 23.715 42.09 22.875 43.125 22.875H48.75C49.785 22.875 50.625 23.715 50.625 24.75V30.375C50.625 31.41 49.785 32.25 48.75 32.25Z" fill="white"/>
<path d="M26.25 21H20.625C19.59 21 18.75 20.16 18.75 19.125V13.5C18.75 12.465 19.59 11.625 20.625 11.625H26.25C27.285 11.625 28.125 12.465 28.125 13.5V19.125C28.125 20.16 27.285 21 26.25 21Z" fill="white"/>
<path d="M37.5 21H31.875C30.84 21 30 20.16 30 19.125V13.5C30 12.465 30.84 11.625 31.875 11.625H37.5C38.535 11.625 39.375 12.465 39.375 13.5V19.125C39.375 20.16 38.535 21 37.5 21Z" fill="white"/>
<path d="M48.75 21H43.125C42.09 21 41.25 20.16 41.25 19.125V13.5C41.25 12.465 42.09 11.625 43.125 11.625H48.75C49.785 11.625 50.625 12.465 50.625 13.5V19.125C50.625 20.16 49.785 21 48.75 21Z" fill="white"/>
<path d="M48.75 9.75H43.125C42.09 9.75 41.25 8.91 41.25 7.875V2.25C41.25 1.215 42.09 0.375 43.125 0.375H48.75C49.785 0.375 50.625 1.215 50.625 2.25V7.875C50.625 8.91 49.785 9.75 48.75 9.75Z" fill="white"/>
<path d="M60 32.25H54.375C53.34 32.25 52.5 31.41 52.5 30.375V24.75C52.5 23.715 53.34 22.875 54.375 22.875H60C61.035 22.875 61.875 23.715 61.875 24.75V30.375C61.875 31.41 61.035 32.25 60 32.25Z" fill="white"/>
</svg>
