<svg width="139" height="139" viewBox="0 0 139 139" fill="none" xmlns="http://www.w3.org/2000/svg">
<g clip-path="url(#clip0_24_63)">
<path d="M138.247 31.5801H135.884C132.962 31.5801 130.21 32.9423 128.433 35.2608L104.247 66.8888L80.0612 35.2608C78.2904 32.9423 75.5354 31.5801 72.6164 31.5801H70.2534L100.753 71.4619L69.6001 112.2H71.9631C74.8849 112.2 77.6371 110.838 79.4107 108.519L104.25 76.0378L129.089 108.519C130.863 110.838 133.615 112.2 136.537 112.2H138.9L107.747 71.4619L138.247 31.5801ZM59.1834 96.1928C52.0833 106.982 38.1055 112.511 24.742 107.635C12.9854 103.346 5.56 91.6586 5.56 79.1431V76.0601H38.92H69.5V64.5675C69.5 46.4836 56.106 30.6515 38.0999 28.9585C17.4389 27.0153 0 43.2839 0 63.5501V79.043C0 93.9744 8.9377 107.855 22.9878 112.912C41.3442 119.517 60.6513 109.659 67.1787 92.7401H65.4051C62.8725 92.7401 60.5734 94.0772 59.1834 96.1928ZM5.56 63.5501C5.56 47.4539 18.6538 34.3601 34.75 34.3601C50.8462 34.3601 63.94 47.4539 63.94 63.5501V70.5001H5.56V63.5501Z" fill="white"/>
</g>
<defs>
<clipPath id="clip0_24_63">
<rect width="139" height="139" fill="white"/>
</clipPath>
</defs>
</svg>
