<svg width="96" height="96" viewBox="0 0 96 96" fill="none" xmlns="http://www.w3.org/2000/svg">
<g clip-path="url(#clip0_24_45)">
<path d="M34.24 19.76L10.16 61.36L22.18 4.58803C22.568 2.76003 25.028 2.41203 25.904 4.06403L34.24 19.76ZM38.68 28.08L43.48 37.08L21.36 58L38.68 28.08ZM56.64 24.6L49.48 31.4L43.4 19.96L47.292 13.264C48.084 11.9 50.068 11.948 50.796 13.348L56.64 24.6ZM84.52 74.96L49.32 95.44C48.72 95.84 48 96 47.32 96C46.64 96 45.92 95.84 45.32 95.48L13.12 76.88L74.588 18.628C75.752 17.524 77.672 18.172 77.936 19.752L86.44 70.84C86.72 72.48 85.96 74.12 84.52 74.96Z" fill="white"/>
</g>
<defs>
<clipPath id="clip0_24_45">
<rect width="96" height="96" fill="white"/>
</clipPath>
</defs>
</svg>
