<svg width="100" height="100" viewBox="0 0 100 100" fill="none" xmlns="http://www.w3.org/2000/svg">
<g clip-path="url(#clip0_24_47)">
<path d="M50 97.4582C76.2104 97.4582 97.458 76.2106 97.458 50.0002C97.458 23.7901 76.2104 2.54242 50 2.54242C23.7899 2.54242 2.54224 23.7901 2.54224 50.0002C2.54224 76.2106 23.7899 97.4582 50 97.4582Z" fill="#111827"/>
<path d="M50.0002 0C22.3859 0 0 22.3858 0 50.0003C0 77.6148 22.3859 100 50.0002 100C77.6147 100 100 77.6148 100 50.0003C100 22.3858 77.6147 0 50.0002 0ZM50.0002 5.08478C74.8063 5.08478 94.9158 25.1941 94.9158 50.0003C94.9158 74.8063 74.8063 94.9158 50.0002 94.9158C25.1941 94.9158 5.08477 74.8063 5.08477 50.0003C5.08477 25.1941 25.1941 5.08478 50.0002 5.08478Z" fill="white"/>
<path fill-rule="evenodd" clip-rule="evenodd" d="M50.565 14.4071C70.2229 14.4071 86.1587 30.3427 86.1587 50.0006C86.1587 69.6582 70.2229 85.5938 50.565 85.5938C30.9075 85.5938 14.9718 69.6582 14.9718 50.0006C14.9718 45.1962 15.9235 40.6143 17.6489 36.433C20.1681 39.8636 24.2308 42.0908 28.8137 42.0908C36.4584 42.0908 42.6556 35.8936 42.6556 28.249C42.6556 23.6661 40.4284 19.6034 36.9974 17.0843C41.179 15.3589 45.761 14.4071 50.565 14.4071Z" fill="url(#paint0_linear_24_47)"/>
</g>
<defs>
<linearGradient id="paint0_linear_24_47" x1="50.565" y1="85.5938" x2="50.565" y2="14.4071" gradientUnits="userSpaceOnUse">
<stop stop-color="white"/>
<stop offset="1" stop-color="#F7F2FF"/>
</linearGradient>
<clipPath id="clip0_24_47">
<rect width="100" height="100" fill="white"/>
</clipPath>
</defs>
</svg>
