<svg width="139" height="139" viewBox="0 0 139 139" fill="none" xmlns="http://www.w3.org/2000/svg">
<path d="M64.6555 35.8473C64.5432 36.1714 64.0219 36.1219 63.7253 36.2164C63.4602 36.3559 63.2445 36.5989 62.9389 36.5989C62.6602 36.5989 62.2109 36.4864 62.1749 36.2164C62.121 35.8473 62.6692 35.4692 63.0153 35.4692C63.24 35.3612 63.5006 35.3027 63.7747 35.3027C64.0264 35.3027 64.2646 35.3522 64.4803 35.4467L64.4668 35.4422C64.5657 35.4827 64.6376 35.5773 64.6376 35.6898C64.6376 35.7033 64.6376 35.7123 64.6331 35.7258V35.8383H64.6511L64.6555 35.8473ZM67.7474 35.8473V35.7258C67.7114 35.6133 67.8193 35.4918 67.9091 35.4467C68.1159 35.3567 68.3585 35.3027 68.6147 35.3027C68.8888 35.3027 69.1495 35.3657 69.3787 35.4737L69.3697 35.4692C69.7247 35.4692 70.2685 35.8473 70.21 36.2299C70.1786 36.5044 69.7337 36.5989 69.4506 36.5989C69.1405 36.5989 68.9338 36.3559 68.6596 36.2164C68.3675 36.1129 67.8417 36.1714 67.7429 35.8518L67.7474 35.8473ZM73.8232 44.7498C71.4324 46.2665 68.6057 47.3332 65.5768 47.7473L65.4689 47.7608C62.7456 47.6033 60.2695 46.6446 58.2472 45.1144L58.2787 45.1369C57.4158 44.3852 56.7058 43.6291 56.1845 43.251C55.2632 42.4994 55.3756 41.3787 55.7711 41.3787C56.3822 41.4687 56.4946 42.1304 56.89 42.5039C57.4293 42.873 58.0989 43.6291 58.9123 44.3762C60.6964 45.8525 62.9523 46.8111 65.4285 47.0002L65.4689 47.0047C68.408 46.7481 71.0819 45.803 73.3917 44.3402L73.3198 44.3852C74.4164 43.6246 75.8185 42.5084 76.9599 41.7568C77.8362 40.9917 77.7958 40.2535 78.5283 40.2535C79.2473 40.3436 78.7215 41.0052 77.7014 42.1214C76.5959 42.9675 75.3331 43.8361 74.0254 44.6418L73.8277 44.7543L73.8232 44.7498ZM33.6205 95.7838H33.6744C33.9845 95.7838 34.2901 95.8153 34.5867 95.8693L34.5552 95.8648C36.9999 96.4949 39.0132 98.0162 40.276 100.055L40.2985 100.096L45.4081 109.453L45.426 109.471C47.4798 112.95 49.6863 115.961 52.1534 118.738L52.104 118.679C54.306 121.019 55.789 124.062 56.189 127.438L56.198 127.51V127.546C56.144 131.223 53.4432 134.256 49.9245 134.819L49.884 134.823C48.9852 134.963 47.9426 135.039 46.8866 135.039C43.0353 135.039 39.4311 133.991 36.3393 132.159L36.4337 132.213C31.7016 130.228 26.21 128.999 20.4578 128.828H20.3904C18.7186 128.716 17.2626 127.861 16.3413 126.596L16.3323 126.582C16.0897 125.799 15.9504 124.899 15.9504 123.963C15.9504 122.388 16.3458 120.907 17.0469 119.615L17.0244 119.665V119.642L17.0379 119.624C17.2221 118.778 17.33 117.801 17.33 116.802C17.33 115.569 17.1682 114.376 16.8626 113.242L16.8851 113.337C16.7009 112.662 16.593 111.883 16.593 111.077C16.593 109.988 16.7862 108.948 17.1457 107.985L17.1278 108.048C18.0266 106.172 19.3523 105.798 21.0015 105.051C22.9699 104.452 24.6821 103.548 26.174 102.382L26.1381 102.409H26.1471V102.395C27.5851 100.888 28.6457 99.0153 29.8995 97.6831C30.7758 96.5624 32.1105 95.8378 33.616 95.7928H33.625L33.6205 95.7838ZM94.3514 95.5093C94.3469 95.5858 94.3469 95.6803 94.3469 95.7748C94.3469 99.1189 96.3647 101.99 99.2498 103.237L99.3037 103.26C99.5194 103.273 99.7711 103.282 100.023 103.282C103.757 103.282 107.101 101.612 109.348 98.9748L109.361 98.9568L110.548 98.9028C110.786 98.8668 111.06 98.8488 111.338 98.8488C112.871 98.8488 114.268 99.4429 115.307 100.415L115.302 100.411L115.32 100.429C116.439 101.783 117.217 103.458 117.509 105.298L117.518 105.357C117.765 107.63 118.587 109.678 119.841 111.388L119.819 111.352C121.688 112.954 122.987 115.178 123.382 117.702L123.391 117.761L123.409 117.72V117.819L123.391 117.752C123.306 119.224 122.353 119.98 120.596 121.101C115.275 123.337 110.705 126.312 106.768 129.958L106.8 129.931C104.067 133.496 100.054 135.957 95.4614 136.619L95.367 136.628C95.0345 136.673 94.648 136.7 94.257 136.7C90.8057 136.7 87.8397 134.612 86.5455 131.632L86.523 131.578L86.496 131.56C86.0781 130.273 85.8399 128.792 85.8399 127.258C85.8399 125.385 86.1949 123.598 86.8465 121.956L86.8106 122.055C87.8622 119.048 88.7655 115.457 89.3632 111.757L89.4126 111.383C89.4845 107.729 89.88 104.214 90.572 100.807L90.5091 101.18C90.8911 98.8488 92.2213 96.8865 94.0773 95.6668L94.1087 95.6488L94.3604 95.5273L94.3514 95.5093ZM82.0785 45.1279C84.7749 54.791 88.0959 63.1399 92.1764 71.0387L91.8213 70.287C94.5761 75.1929 96.7197 80.8863 97.9466 86.9173L98.0095 87.2954C98.0499 87.2954 98.0993 87.2954 98.1488 87.2954C99.124 87.2954 100.068 87.4259 100.966 87.6734L100.89 87.6554C101.384 85.8776 101.668 83.8388 101.668 81.7325C101.668 75.3144 99.0296 69.5084 94.7783 65.3542L94.7738 65.3497C93.538 64.2245 93.4706 63.4639 94.0818 63.4639C98.4454 67.5596 101.672 72.8165 103.272 78.7395L103.326 78.969C103.726 80.4497 103.955 82.151 103.955 83.9063C103.955 85.4861 103.771 87.0253 103.42 88.4971L103.447 88.3621C103.78 88.5331 104.166 88.6636 104.575 88.7356L104.602 88.7401C110.399 91.7421 112.538 94.015 111.509 97.3861V97.143C111.172 97.125 110.835 97.143 110.498 97.143H110.408C111.258 94.5146 109.388 92.5028 104.427 90.2569C99.2902 88.0065 95.1828 88.3666 94.4862 92.8718C94.4368 93.0923 94.4008 93.3489 94.3874 93.6144V93.6279C94.0593 93.763 93.6683 93.889 93.2639 93.979L93.2144 93.988C90.9315 95.5002 89.3047 97.8541 88.77 100.6L88.761 100.663C88.0959 103.791 87.6779 107.414 87.6105 111.118V111.172V111.19C87.2016 114.057 86.5769 116.622 85.7321 119.08L85.8219 118.783C81.4044 122.401 75.7061 124.589 69.491 124.589C64.4129 124.589 59.6763 123.126 55.6812 120.596L55.789 120.659C55.1329 119.521 54.3824 118.535 53.5286 117.657L53.5331 117.662C53.0972 116.942 52.5849 116.325 51.9962 115.794L51.9872 115.79C52.9174 115.79 53.8162 115.65 54.6655 115.394L54.5981 115.412C55.407 115.029 56.0272 114.367 56.3553 113.557L56.3643 113.535C56.4451 113.116 56.4946 112.639 56.4946 112.149C56.4946 110.146 55.7081 108.332 54.4229 106.991L54.4274 106.995C51.6456 103.57 48.3201 100.717 44.5587 98.5338L44.3879 98.4437C41.3725 96.6974 39.0896 93.9655 37.9616 90.6935L37.9302 90.5944C37.5122 89.1632 37.2696 87.5159 37.2696 85.8146C37.2696 84.2259 37.4808 82.6866 37.8717 81.2194L37.8448 81.3409C39.539 75.4269 41.9837 70.2645 45.1249 65.6063L44.9991 65.7998C45.6013 65.4352 45.2058 66.5604 42.7072 71.2772C40.5771 74.4862 39.3053 78.4334 39.3053 82.6776C39.3053 86.4582 40.3119 90.0003 42.0736 93.0563L42.0196 92.9573C42.2533 87.0658 43.57 81.5389 45.7676 76.4891L45.6552 76.7816C50.3963 68.2212 53.987 58.279 55.8789 47.7428L55.9688 47.1532C56.2384 47.3557 57.1866 47.9138 57.5911 48.2874C58.8134 49.0345 59.7257 50.1597 60.9031 50.9023C62.103 52.0725 63.7478 52.7926 65.5543 52.7926C65.6487 52.7926 65.7431 52.7926 65.8374 52.7881H65.824C66.0442 52.8061 66.2464 52.8241 66.4396 52.8241C68.5023 52.7836 70.4257 52.23 72.0975 51.2849L72.0391 51.3164C73.6659 50.5648 74.9601 49.4396 76.1959 49.066H76.2229C78.6272 48.4134 80.6405 47.0227 82.065 45.1549L82.083 45.1279H82.0785ZM66.3542 33.0793C66.3677 33.0793 66.3812 33.0793 66.3947 33.0793C68.9517 33.0793 71.311 33.921 73.212 35.3432L73.1805 35.3207C74.8792 36.3739 76.8386 37.2695 78.9103 37.9042L79.09 37.9492H79.108C80.2135 38.4442 81.1258 39.2139 81.7774 40.1725L81.7909 40.195V39.4569C81.9976 39.871 82.1234 40.3616 82.1234 40.8791C82.1234 41.3202 82.0336 41.7388 81.8763 42.1214L81.8853 42.0989C80.591 44.3807 78.4923 46.0775 75.9847 46.8156L75.9128 46.8336V46.8426C74.4074 47.6033 73.0996 48.715 71.5627 49.4576C69.9898 50.4027 68.0979 50.9608 66.0711 50.9608C66.0037 50.9608 65.9363 50.9608 65.8689 50.9608H65.8779C65.779 50.9653 65.6622 50.9698 65.5453 50.9698C64.7634 50.9698 64.0084 50.8303 63.3164 50.5693L63.3613 50.5828C62.6468 50.1912 62.0581 49.8221 61.4873 49.4261L61.5502 49.4711C60.5301 48.5754 59.4066 47.7158 58.2292 46.9282L58.1124 46.8561V46.8291H58.0854C56.4002 45.9335 55.0745 44.5608 54.2566 42.8865L54.2341 42.8325C54.1128 42.5309 54.0454 42.1799 54.0454 41.8153C54.0454 40.8341 54.5487 39.97 55.3082 39.4659L55.3172 39.4614C56.5755 38.7008 57.4518 37.9357 58.0315 37.5711C58.6157 37.157 58.8359 36.9995 59.0202 36.833H59.0291V36.815C60.2335 35.2892 61.8289 34.119 63.6669 33.4574L63.7388 33.4349C64.5207 33.2099 65.4195 33.0793 66.3498 33.0703L66.3542 33.0793ZM58.6606 23.4837H58.8629C59.7077 23.5018 60.4852 23.7853 61.1143 24.2489L61.1053 24.2399C61.9098 24.9555 62.5659 25.8241 63.0153 26.8053L63.0332 26.8548C63.5411 27.9575 63.8556 29.2402 63.8916 30.5904V30.6039V30.6264C63.9096 30.8335 63.9185 31.072 63.9185 31.3106C63.9185 31.5941 63.9051 31.8776 63.8781 32.1567L63.8826 32.1207V32.5708C63.7163 32.6113 63.568 32.6698 63.4152 32.7058C62.5569 33.0613 61.8334 33.4394 61.1458 33.867L61.2087 33.831C61.2447 33.5834 61.2626 33.2999 61.2626 33.0118C61.2626 32.7733 61.2492 32.5348 61.2222 32.3007L61.2267 32.3277V32.2422C61.1458 31.5491 60.984 30.9145 60.7458 30.3159L60.7638 30.3654C60.5796 29.7713 60.256 29.2672 59.8336 28.8666C59.5864 28.6416 59.2583 28.5021 58.8943 28.5021C58.8629 28.5021 58.8314 28.5021 58.8 28.5066H58.8045H58.6876C58.2247 28.5561 57.8383 28.8441 57.645 29.2402L57.6405 29.2492C57.2945 29.6678 57.0563 30.1854 56.9664 30.7525V30.7705C56.8631 31.1575 56.8091 31.6031 56.8091 32.0622C56.8091 32.2602 56.8181 32.4582 56.8406 32.6518V32.6293V32.7148C56.9125 33.4079 57.0743 34.047 57.308 34.6411L57.29 34.5916C57.4787 35.1857 57.7978 35.6943 58.2202 36.0993C58.2742 36.1534 58.3371 36.1984 58.409 36.2344H58.4135C58.0405 36.4729 57.7169 36.725 57.4203 37.004L57.4248 36.9995C57.2226 37.1795 56.9754 37.3146 56.7013 37.3776L56.6878 37.3821C56.1351 36.7205 55.6228 35.9778 55.1823 35.1947L55.1464 35.1227C54.6386 34.02 54.324 32.7418 54.2746 31.3871V31.3691C54.2566 31.153 54.2476 30.901 54.2476 30.6444C54.2476 29.5598 54.4229 28.5156 54.7419 27.5389L54.724 27.6109C55.0565 26.4497 55.6003 25.4461 56.3238 24.5909L56.3148 24.6044C56.8855 23.9293 57.7214 23.5017 58.6606 23.4792H58.6651L58.6606 23.4837ZM75.2972 23.1507H75.3691C75.3736 23.1507 75.3781 23.1507 75.387 23.1507C76.6229 23.1507 77.7553 23.5693 78.6631 24.2714L78.6496 24.2624C79.6787 25.059 80.5056 26.0627 81.0853 27.2104L81.1078 27.2599C81.6516 28.4571 81.9886 29.8478 82.0381 31.3151V31.3331C82.0381 31.2205 82.0695 31.108 82.0695 30.9955V31.5851L82.047 31.4681L82.0246 31.3331C82.0111 32.7733 81.7055 34.1325 81.1572 35.3702L81.1842 35.3072C80.9056 36.0408 80.5011 36.6709 79.9888 37.193C79.854 37.112 79.6877 37.0355 79.5215 36.968L79.4945 36.959C78.8878 36.77 78.3575 36.5134 77.8767 36.1984L77.8992 36.2119C77.5531 36.0678 77.1397 35.9418 76.7128 35.8473L76.6633 35.8383C77.0273 35.4963 77.3644 35.1317 77.6744 34.7446L77.6924 34.7221C77.9755 34.056 78.1508 33.2864 78.1868 32.4762V32.4627V32.3502C78.1868 32.3142 78.1868 32.2782 78.1868 32.2377C78.1868 31.4726 78.0609 30.739 77.8272 30.0548L77.8407 30.1044C77.5576 29.3887 77.2116 28.7721 76.7981 28.2095L76.8161 28.232C76.4251 27.836 75.9083 27.5659 75.3286 27.4894H75.3151H75.2253C75.2208 27.4894 75.2118 27.4894 75.2073 27.4894C74.6141 27.4894 74.0838 27.782 73.7602 28.2275L73.7557 28.232C73.2345 28.7406 72.839 29.3707 72.6143 30.0773L72.6053 30.1088C72.3222 30.7705 72.1379 31.5401 72.102 32.3412V32.3547V32.4627C72.111 33.0028 72.1514 33.5249 72.2233 34.0335L72.2143 33.966C71.1313 33.5879 69.7562 33.2054 68.8034 32.8318C68.7495 32.5033 68.7136 32.1162 68.7046 31.7201V31.7066V31.5941C68.7001 31.5041 68.7001 31.4006 68.7001 31.297C68.7001 29.8388 69.0102 28.4571 69.5719 27.2104L69.5449 27.2734C70.0213 26.0177 70.8617 24.987 71.9357 24.2894L71.9582 24.2759C72.8749 23.5738 74.0389 23.1507 75.2972 23.1507ZM72.3267 4C71.4549 4 70.5561 4.04501 69.6303 4.11702C45.8979 5.98933 52.1939 31.153 51.8299 39.5379C51.6052 45.956 49.4301 51.8205 45.8754 56.6048L45.9338 56.5238C39.6109 63.734 34.4519 72.1594 30.8747 81.3814L30.6815 81.953C29.522 85.036 28.8479 88.5961 28.8479 92.3137C28.8479 93.5964 28.9288 94.8611 29.0816 96.0988L29.0681 95.9503C28.8165 96.1574 28.6053 96.4094 28.457 96.6974L28.4525 96.711C26.9919 98.2187 25.9269 100.087 24.727 101.428C23.4552 102.404 21.9632 103.174 20.3454 103.651L20.2511 103.674C18.1659 104.299 16.4672 105.663 15.4201 107.459L15.3976 107.499C14.9302 108.453 14.6561 109.574 14.6561 110.762C14.6561 110.807 14.6561 110.848 14.6561 110.893C14.6651 111.964 14.773 112.999 14.9842 114.007L14.9662 113.904C15.2179 114.889 15.3617 116.024 15.3617 117.189C15.3617 117.954 15.2987 118.706 15.1774 119.44L15.1864 119.359C14.4359 120.767 14 122.442 14 124.22C14 125.471 14.2157 126.668 14.6157 127.78L14.5932 127.708C15.82 129.454 17.676 130.687 19.8241 131.079L19.8736 131.088C25.5988 131.569 30.8882 132.766 35.8764 134.598L35.454 134.463C38.5908 136.331 42.3702 137.434 46.4012 137.434C47.7224 137.434 49.0167 137.317 50.275 137.087L50.1447 137.105C53.1421 136.426 55.5868 134.468 56.9035 131.844L56.9305 131.785C60.229 131.767 63.8377 130.273 69.6213 129.908C73.5445 129.584 78.4609 131.412 84.0918 131.034C84.258 131.749 84.4783 132.375 84.7569 132.964L84.7299 132.906L84.7479 132.924C86.4736 136.543 90.0957 139 94.293 139C94.657 139 95.0165 138.982 95.3715 138.946L95.3266 138.951C100.499 138.185 104.939 135.494 107.968 131.646L107.999 131.605C111.788 128.149 116.21 125.3 121.054 123.265L121.355 123.153C123.297 122.293 124.69 120.52 124.996 118.387L125 118.355C124.735 115.232 123.238 112.509 121.009 110.632L120.991 110.618V110.074L120.973 110.056C120.012 108.57 119.338 106.806 119.081 104.916L119.073 104.848C118.834 102.539 117.823 100.501 116.309 98.9658H116.291C115.958 98.6643 115.599 98.5878 115.235 98.2052C114.938 97.9937 114.57 97.8631 114.17 97.8451C115.046 95.1357 115.549 92.0212 115.549 88.7851C115.549 84.5544 114.682 80.5263 113.118 76.8716L113.194 77.0697C110.031 69.5444 105.919 63.0678 100.917 57.4059L100.98 57.4824C96.0142 52.6126 92.7651 46.001 92.2258 38.6378L92.2213 38.5433C92.3696 26.4407 93.547 4.04951 72.3177 4.018L72.3267 4Z" fill="white"/>
</svg>
