<svg width="90" height="90" viewBox="0 0 90 90" fill="none" xmlns="http://www.w3.org/2000/svg">
<path d="M44.9379 6.22119L47.0995 10.281C47.5854 11.0302 48.1119 11.6934 48.732 12.3109C50.55 14.1063 52.2446 16.0225 53.8043 18.0463C57.4667 22.8553 59.937 28.1959 61.7012 33.9718C62.7592 37.5001 63.3338 41.1195 63.3768 44.7795C63.5539 55.7212 59.8029 65.1166 52.2401 72.9249C51.0098 74.1631 49.6809 75.2991 48.2663 76.3215C47.517 76.3215 47.1627 75.747 46.854 75.218C46.2916 74.2371 45.9174 73.1598 45.7504 72.0415C45.4847 70.7178 45.31 69.394 45.3961 68.0272V67.4097C45.3353 67.278 44.6747 6.53251 44.9379 6.22119Z" fill="white"/>
<path d="M44.9379 6.08708C44.8493 5.9099 44.7607 6.04405 44.6721 6.1301C44.7151 7.01598 44.4064 7.80567 43.923 8.55993C43.3914 9.30912 42.6878 9.88367 41.9816 10.5013C38.0585 13.8979 34.9705 18.0008 32.4977 22.5896C29.2073 28.7654 27.5115 35.3842 27.0306 42.3522C26.8104 44.8656 27.8253 53.7344 28.6176 56.2933C30.7791 63.0867 34.6617 68.779 39.691 73.7197C40.9261 74.9093 42.2474 76.0128 43.6142 77.0734C44.0115 77.0734 44.0546 76.719 44.1457 76.4558C44.3199 75.8925 44.4527 75.3173 44.543 74.7347L45.4289 68.1184L44.9379 6.08708Z" fill="#EAEAEA"/>
<path d="M47.0994 79.0096C47.188 77.9972 47.674 77.1569 48.203 76.3192C47.6715 76.0989 47.2766 75.661 46.9679 75.1726C46.7015 74.7101 46.4811 74.2226 46.3097 73.7172C45.6922 71.8645 45.5606 69.9206 45.3834 68.0274V66.8809C45.1632 67.058 45.1176 68.5564 45.1176 68.7791C44.9888 70.7801 44.7233 72.77 44.3229 74.7347C44.1913 75.5294 44.1026 76.3217 43.6141 77.0278C43.6141 77.1164 43.6141 77.205 43.6572 77.3366C44.4519 79.6753 44.6696 82.057 44.8038 84.4843V85.3702C44.8038 86.4281 44.7608 86.2055 45.6391 86.5598C45.9934 86.6914 46.3882 86.737 46.7426 87.0006C47.0084 87.0006 47.0514 86.78 47.0514 86.6028L46.9198 85.1474V81.0876C46.8767 80.379 47.0084 79.6753 47.0969 79.0122L47.0994 79.0096Z" fill="#C2BFBF"/>
</svg>
