<svg width="83" height="83" viewBox="0 0 83 83" fill="none" xmlns="http://www.w3.org/2000/svg">
<g clip-path="url(#clip0_23_16)">
<path d="M83.4458 80.9666L81.689 79.2927C80.8209 78.148 79.8975 77.1347 78.8912 76.2114L78.8739 76.1975C77.841 75.2592 76.7678 74.3669 75.6542 73.5208C74.7619 72.9075 73.5354 72.1686 71.9745 71.304C70.6915 70.7265 69.6885 69.7132 69.1456 68.4543L69.1318 68.4197L68.9658 68.3367C69.6989 68.2641 70.3698 68.1292 71.0131 67.939L70.9335 67.9598L72.9048 67.4168C73.721 67.1609 74.6651 66.9949 75.6438 66.9569H75.6645C76.6951 66.9154 77.6669 66.7494 78.5938 66.4762L78.5073 66.4969C78.9546 66.3862 79.4145 66.2606 79.8872 66.12C80.3598 65.9793 80.7644 65.8537 81.101 65.743V65.1585C80.7667 64.6582 80.3621 64.0865 79.8872 63.4432C79.4341 62.8276 78.9258 62.2916 78.3551 61.8247L78.3378 61.8109C76.8876 60.529 75.3856 59.2886 73.8316 58.0897C72.4621 57.0211 70.9093 55.9317 69.2978 54.9219L69.0626 54.7835C68.2118 54.2233 67.2366 53.7045 66.2095 53.2792L66.0919 53.2377C65.059 52.818 64.0411 52.3581 63.0382 51.8578C62.7027 51.6918 62.3119 51.5465 61.9073 51.4462L61.8693 51.4393C61.4646 51.3563 61.1188 51.1488 60.8663 50.8549L60.8629 50.8514C60.3856 50.222 59.9672 49.5061 59.6352 48.7453L59.6075 48.6761C59.2732 47.8945 58.9112 47.1441 58.5216 46.4247C57.6847 44.8062 56.8754 43.1612 56.0938 41.4897C55.3123 39.8182 54.5618 38.1443 53.8425 36.4682C53.3422 35.3523 52.8822 34.2376 52.4626 33.124C51.9992 31.8997 51.477 30.8519 50.8683 29.8662L50.9133 29.9458C49.4193 27.4005 47.9287 25.2286 46.3102 23.164L46.407 23.2954C44.8058 21.2757 43.1458 19.4705 41.3613 17.7967L41.3337 17.7725C39.5734 16.1194 37.6782 14.5424 35.6897 13.083L35.5202 12.9619C33.4544 11.461 31.195 9.98314 28.7419 8.52833C27.7563 7.94733 26.6115 7.47354 25.4046 7.16921L25.3147 7.14846L21.4655 6.18704L19.2903 6.02104C18.5663 5.96571 17.8412 5.93804 17.115 5.93804C16.6031 5.66829 16.1639 5.34666 15.7766 4.97316C15.3962 4.61004 14.9846 4.26766 14.5558 3.95296L14.5212 3.92875C12.4289 2.70796 9.99771 1.59091 7.45584 0.712498L7.16188 0.622582C6.49442 0.23179 5.69209 0.00354004 4.83788 0.00354004C4.22921 0.00354004 3.64476 0.121123 3.11217 0.332082L3.1433 0.321707C1.82913 0.843915 0.826215 1.90562 0.393923 3.22671L0.383548 3.26129C0.13109 3.85612 -0.0141602 4.54433 -0.0141602 5.27058C-0.0141602 6.54325 0.435423 7.70871 1.18588 8.61825L1.17896 8.60787C2.43319 10.2794 3.3946 11.5936 4.06321 12.5504C4.56352 13.2213 5.07996 13.9187 5.61255 14.6427C6.10017 15.2928 6.53246 16.0364 6.88176 16.8214L6.90942 16.894C7.10309 17.3056 7.27255 17.7967 7.39705 18.3016L7.40742 18.3569C7.51809 18.8319 7.65758 19.3483 7.82588 19.9062C8.32619 21.1881 8.79998 22.5023 9.24726 23.8487C9.73488 25.3185 10.2744 26.5635 10.9003 27.7497L10.8346 27.6114C11.1689 28.2247 11.5044 28.8241 11.841 29.4097C12.1776 29.9954 12.5396 30.5671 12.9269 31.1251C13.1517 31.464 13.4353 31.7441 13.7604 31.962L13.7708 31.9689C14.1131 32.2179 14.3379 32.6087 14.3552 33.0514C13.961 33.6324 13.6947 34.331 13.6048 35.0814L13.6013 35.1022C13.4803 35.9771 13.3073 36.7552 13.0722 37.5057L13.0998 37.402C12.3286 39.7052 11.886 42.3612 11.886 45.1175C11.886 46.0097 11.9309 46.8882 12.0243 47.7562L12.0139 47.649C12.2214 50.9621 13.2209 54.0054 14.8221 56.6407L14.7737 56.5542C15.455 57.5744 16.1847 58.4632 16.9905 59.2759C17.5715 59.9261 18.4153 60.3342 19.356 60.3342C19.8816 60.3342 20.3796 60.2062 20.8154 59.978L20.7981 59.9849C22.0085 59.5491 22.8696 58.4425 22.9319 57.1248V57.1179C23.0979 55.4787 23.3469 54.0123 23.6893 52.5806L23.6443 52.8123C23.7273 52.5944 23.7757 52.3454 23.7757 52.0826C23.7757 52.0307 23.7723 51.9788 23.7688 51.927V51.9339C23.7411 51.6826 23.8945 51.4451 24.2288 51.2215V51.3875C24.5631 52.169 24.9112 52.9495 25.2732 53.7287C25.6351 54.508 26.011 55.2885 26.4006 56.07C27.4208 57.6228 28.5033 58.9785 29.6929 60.227L29.6825 60.2166C30.8757 61.5031 32.176 62.6582 33.5801 63.6784L33.6562 63.7302C34.3893 64.2905 35.0326 64.8957 35.6136 65.5562L35.6274 65.5701C36.1738 66.2133 36.8275 66.7425 37.5641 67.1402L37.5987 67.1575V67.0745H37.7647C37.6298 66.7736 37.4119 66.5315 37.1422 66.3655L37.1353 66.362C36.862 66.2099 36.6269 66.0577 36.4055 65.8917L36.4228 65.9021C35.9225 65.4018 35.4061 64.8438 34.8735 64.2282C34.3409 63.6127 33.8533 63.027 33.4106 62.4714C32.2394 60.8529 31.1224 59.1618 30.0595 57.398C28.9966 55.6343 27.9926 53.8417 27.0473 52.0203C26.6 51.1281 26.1677 50.2082 25.7504 49.2606C25.3331 48.313 24.9285 47.3931 24.5365 46.5008C24.3671 46.1585 24.2495 45.7642 24.2045 45.3457V45.3285C24.1838 44.9307 23.9555 44.5884 23.6235 44.412L23.6166 44.4085C23.1982 45.1209 22.7348 45.7365 22.2056 46.2933L22.2091 46.2899C21.6592 46.8674 21.2096 47.5487 20.888 48.2957L20.8707 48.3407C20.3831 49.5234 20.0269 50.8964 19.8713 52.3316L19.8643 52.3973C19.6983 53.8751 19.5312 55.3945 19.3629 56.9554L19.1969 57.0384L19.1139 57.1214C18.2147 56.9381 17.4746 56.364 17.0735 55.5893L17.0665 55.572C16.6469 54.7628 16.2711 53.9674 15.9391 53.1858C15.0815 50.9828 14.5489 48.434 14.4763 45.7711V45.74C14.4451 45.3181 14.4313 44.8235 14.4313 44.329C14.4313 42.0257 14.7944 39.8055 15.4653 37.7236L15.4238 37.8757C15.5898 37.2625 15.9518 36.2296 16.5098 34.7771C17.0677 33.3246 17.1795 32.3205 16.8452 31.7649C16.6723 31.1942 16.3507 30.7135 15.9288 30.347L15.9253 30.3435C15.5034 29.9769 15.1195 29.593 14.7668 29.185L14.7564 29.1711C14.3667 28.6086 13.9909 28.0091 13.629 27.3728C13.267 26.7365 12.9465 26.1093 12.6675 25.4915C12.0969 24.1704 11.5125 22.5138 11.0283 20.8123L10.9522 20.5045C10.4023 18.5506 9.79021 16.8975 9.06396 15.3067L9.15388 15.528C8.77001 14.6565 8.32388 13.9026 7.80513 13.2144L7.82588 13.242C7.26333 12.4904 6.76071 11.7792 6.31805 11.1082C5.75549 10.3843 5.19755 9.68687 4.64421 9.01596C4.08051 8.33466 3.57905 7.56691 3.17096 6.74383L3.13984 6.67466C2.97384 6.33921 2.82859 5.94841 2.7283 5.54379L2.72138 5.50575C2.68334 5.38471 2.66259 5.24291 2.66259 5.10112C2.66259 4.81754 2.74559 4.55125 2.89084 4.32991L2.88738 4.33683C2.92542 4.14316 3.01534 3.97371 3.13984 3.83537C3.27471 3.71433 3.44763 3.62441 3.63438 3.58637H3.6413C3.93526 3.39616 4.29146 3.28204 4.6788 3.28204C4.9693 3.28204 5.24942 3.34775 5.49496 3.46533L5.48459 3.46187C6.24196 3.67629 6.85409 3.89071 7.45238 4.13625L7.32788 4.09129C8.38613 4.53857 9.36253 4.97086 10.2571 5.38816C11.2877 5.87925 12.1661 6.398 12.9961 6.97554L12.9338 6.93404C13.3811 7.21301 13.8272 7.51965 14.2722 7.85396C14.7172 8.18826 15.191 8.52372 15.6936 8.86033H16.866C17.7582 8.86033 18.7058 8.90298 19.7087 8.98829C20.722 9.06783 21.6592 9.25804 22.5515 9.55546L22.4685 9.53125C24.1319 10.0258 25.5602 10.6102 26.9159 11.3123L26.7741 11.2466C28.1413 11.9429 29.4382 12.6818 30.6647 13.4634C32.7017 14.7326 34.462 16.0329 36.1185 17.4543L36.0597 17.4059C37.7889 18.886 39.359 20.4042 40.8322 22.0089L40.8668 22.0504C42.3055 23.6205 43.6784 25.3255 44.9338 27.1134L45.041 27.276C46.1961 28.9083 47.3615 30.7965 48.4094 32.754L48.5547 33.0479C48.8348 33.5805 49.1184 34.2341 49.3639 34.9016L49.402 35.0157C49.6256 35.6566 49.8758 36.3137 50.1524 36.987C50.7657 38.3818 51.4228 39.7894 52.1237 41.2096C52.8246 42.6298 53.4816 44.0108 54.0949 45.3527L55.9348 49.3678C56.5815 50.7719 57.3043 51.9823 58.1446 53.0993L58.1066 53.0474C58.8086 53.7979 59.7458 54.3236 60.7972 54.5069L60.8248 54.5103C62.0975 54.8285 63.1696 55.1882 64.2071 55.6135L64.0445 55.5547C64.5391 55.7795 65.1754 56.0182 65.829 56.2291L65.9674 56.2672C66.7005 56.492 67.3369 56.7894 67.9213 57.1629L67.8902 57.1456C69.0211 57.7785 69.979 58.401 70.892 59.0788L70.8194 59.0269C71.767 59.7232 72.7146 60.3803 73.6622 60.9982C74.1094 61.3325 74.8599 61.8201 75.9135 62.461C76.9672 63.102 77.5251 63.7014 77.5874 64.2594C77.1931 64.2455 76.7263 64.2352 76.2594 64.2352C74.5579 64.2352 72.884 64.3458 71.2448 64.5602L71.4385 64.5395C69.5848 64.7885 67.904 65.2415 66.3236 65.8882L66.4619 65.8398C66.0711 66.0093 65.6043 66.1649 65.1201 66.286L65.0544 66.2998C64.5633 66.3724 64.1829 66.7667 64.1345 67.2577C64.3454 67.5206 64.5149 67.8284 64.629 68.1604L64.6359 68.1811C64.7535 68.5339 64.8953 68.8382 65.0682 69.1218L65.0578 69.101C65.4694 69.8307 65.912 70.4602 66.41 71.0412L66.3962 71.0239C66.8838 71.6256 67.4337 72.1478 68.0424 72.5939L68.0666 72.6112C68.6291 73.0585 69.2148 73.5185 69.8234 73.9911C70.3802 74.4269 71.0096 74.8557 71.6633 75.243L71.7463 75.288C72.7284 75.8897 73.8697 76.4638 75.0593 76.9445L75.2184 76.9999C76.5118 77.5186 77.622 78.1204 78.6525 78.8362L78.5972 78.7982C79.2681 79.1878 79.9367 79.6201 80.603 80.0951C81.2693 80.57 81.9103 81.03 82.5259 81.475C82.7783 81.724 82.9997 82.0006 83.1864 82.3015L83.1968 82.3188C83.5115 82.6784 83.9473 82.924 84.4418 82.9862H84.4522V82.8202C84.1478 82.5885 83.923 82.2669 83.8158 81.8969L83.8124 81.883C83.7259 81.5303 83.598 81.2225 83.425 80.9389L83.432 80.9527L83.4458 80.9666ZM19.2038 14.5493C18.7565 14.5493 18.3381 14.5631 17.9484 14.5908C17.5507 14.6185 17.1807 14.6911 16.8314 14.8087L16.8625 14.7983V14.8813H17.0285C17.2521 15.2156 17.5334 15.5914 17.8723 16.0087C18.2113 16.426 18.5179 16.8306 18.7923 17.2226L20.1306 19.9823L20.2966 19.8993C20.6874 19.6157 20.9883 19.2353 21.1681 18.7892L21.175 18.7719C21.3549 18.2912 21.4586 17.731 21.4586 17.15C21.4586 17.0877 21.4586 17.0255 21.4552 16.9632V16.9736C21.2995 16.8214 21.1716 16.6416 21.0817 16.441L21.0782 16.4306L20.7981 15.8012C20.6148 15.5107 20.3589 15.2825 20.058 15.1372L20.0476 15.1337C19.7225 14.9781 19.4459 14.781 19.2038 14.5493Z" fill="white"/>
</g>
<defs>
<clipPath id="clip0_23_16">
<rect width="83" height="83" fill="white"/>
</clipPath>
</defs>
</svg>
