<svg width="86" height="89" viewBox="0 0 86 89" fill="none" xmlns="http://www.w3.org/2000/svg">
<path d="M85.166 54.58C84.8 52.922 83.296 50.988 80.262 50.988C79.642 50.988 78.964 51.066 78.192 51.226C76.776 51.518 75.57 51.66 74.508 51.708C82.774 37.628 88.14 18.07 82.826 11.28C75.824 2.33398 66.398 0.997976 61.404 0.997976L60.934 0.999976C59.076 1.02998 57.148 1.25798 55.208 1.67798L48.042 3.22598C47.066 3.10398 46.072 3.01798 45.036 2.99998H44.976H44.944L44.64 2.99798C41.454 2.99798 38.548 3.67398 35.958 4.94398L33.456 3.95798C30.016 2.60198 24.84 0.987976 19.72 0.987976C19.432 0.987976 19.146 0.993976 18.858 1.00398C13.814 1.18598 9.48199 3.09998 6.32799 6.53798C2.39199 10.83 0.599995 17.108 1.00599 25.2C1.02599 25.618 5.92199 67 19.8 67H19.85L19.978 66.998C21.78 66.954 23.498 66.23 25.104 64.844C26.33 65.764 27.916 66.308 29.394 66.524C30.37 66.754 32.126 67.08 34.23 67.08C36.798 67.08 39.114 66.554 41.11 65.604C41.108 67.364 41.098 69.592 41.078 72.44L41.076 72.59L41.086 72.74C41.28 75.578 41.77 78.136 42.508 80.142C44.61 85.86 48.24 89.01 52.73 89.01C52.916 89.01 53.106 89.004 53.298 88.992C56.99 88.764 60.732 86.69 63.306 83.448C66.092 79.938 66.736 76.234 66.984 73.396L67 73.222V73.046V64.888L67.206 64.908L68.078 64.984L68.162 64.992L68.246 64.996C68.494 65.008 68.75 65.012 69.008 65.012C72.022 65.012 75.732 64.23 78.24 63.064C80.638 61.952 86.118 58.896 85.166 54.58Z" fill="#111827"/>
<path d="M63 63C63 62.59 63.024 62.248 63.036 61.87C63.016 61.368 63 61 63 61C63 61 63.024 60.982 63.064 60.956C63.362 55.61 64.836 53.55 66.414 52.376C66.194 52.07 65.94 51.74 65.702 51.426C65.036 50.552 64.206 49.468 63.318 48.078L63.154 47.762C63.02 47.434 62.696 46.868 62.284 46.124C59.918 41.844 54.994 32.94 58.364 27.316C59.84 24.852 62.608 23.432 66.606 23.082C64.972 18.436 58.85 7.23003 44.97 7.00003C44.966 7.00003 44.962 7.00003 44.958 7.00003C32.876 6.80403 28.906 17.784 27.614 24.344C29.394 23.59 31.426 23.132 33.286 23.132C33.314 23.132 33.344 23.132 33.372 23.132C37.952 23.166 41.102 25.61 42.018 29.84C42.688 32.944 43.01 35.66 43.002 38.146C42.982 43.584 41.886 46.444 40.918 48.968L40.61 49.784C40.362 50.452 40.1 51.074 39.852 51.658C39.6 52.254 39.378 52.784 39.216 53.262C40.184 53.482 40.944 53.792 41.466 54.022L41.768 54.154C41.862 54.194 41.956 54.24 42.042 54.292C43.738 55.324 44.794 56.91 45.02 58.758C45.142 59.754 45.122 66.544 45.08 72.468C45.254 75.038 45.69 77.196 46.266 78.76C47.084 80.988 49.128 85.242 53.054 84.998C55.794 84.828 58.428 83.16 60.176 80.96C62.052 78.598 62.744 75.986 63.004 73.044V63H63Z" fill="white"/>
<path d="M23.02 40.722C22.43 44.94 24.002 49.468 27.228 52.834C27.802 53.434 28.41 53.962 29.04 54.44C27.634 55.984 25.658 58.202 23.624 60.648C22.338 62.196 21.086 62.97 19.88 63C11.444 63.206 5.27396 30.46 4.99996 25C4.27196 10.448 11.516 5.27203 19 5.00003C23.776 4.82603 28.864 6.44803 31.988 7.67803C25.574 13.344 23.244 22.876 23.002 28.918C23.002 28.926 23.006 28.932 23.006 28.94C23.004 28.956 23 28.97 23 28.986C22.998 29.28 23.036 29.812 23.094 30.526C23.268 32.668 23.59 36.652 23.02 40.722Z" fill="white"/>
<path d="M71.002 25.278C71.05 25.034 71.076 24.77 71.046 24.462C70.726 21.052 66.204 10.508 56.052 5.58803C57.482 5.27803 59.156 5.03003 60.998 5.00003C66.882 4.90403 74.31 6.88802 79.676 13.744C83.222 18.274 79.506 36.046 70.286 50.996C69.97 50.464 69.574 49.914 69.124 49.322C71.572 45.166 71.104 41.604 70.654 38.448L70.6526 38.4384C70.4611 37.094 70.2801 35.823 70.322 34.536C70.364 33.218 70.516 31.904 70.664 30.632C70.866 28.904 71.064 27.118 71.002 25.278Z" fill="white"/>
<path d="M69.862 54.89C71.106 55.656 73.67 56.242 79 55.142C83.306 54.254 80.924 57.41 76.554 59.438C74.526 60.38 71.068 61.12 68.428 61L67.558 60.922C67.378 60.884 67.232 60.866 67.066 60.834C67.354 56.436 68.532 55.72 69.276 55.27L69.2903 55.2612C69.4722 55.1497 69.6671 55.0303 69.862 54.89Z" fill="white"/>
<path d="M40.062 57.774C40.65 58.16 40.972 58.642 41.046 59.238C41.07 59.458 41.086 60.074 41.096 60.97C37.604 63.816 32.346 63.142 30.134 62.588C27.848 62.31 24.33 60.518 30.29 59C33.626 58.314 34.974 57.75 35.922 57.02C36.026 57.024 36.128 57.038 36.232 57.038C36.486 57.038 36.738 57.02 36.992 57H37C38.3021 57 39.1191 57.3599 39.8395 57.6772L39.846 57.68L40.062 57.774Z" fill="white"/>
<path d="M38.362 32.002C37.778 32.606 36.856 33.134 35.838 32.97C34.182 32.702 32.912 30.704 33.004 29.954C33.092 29.206 34.506 28.816 36.16 29.084C36.734 29.178 37.256 29.34 37.696 29.54C37.056 28.164 35.898 27.37 34.132 27.176C31.002 26.828 27.68 28.464 27.012 29.37C27.026 29.59 27.052 29.872 27.078 30.204C27.264 32.498 27.608 36.772 26.978 41.278C26.562 44.248 27.764 47.616 30.112 50.068C31.626 51.648 33.394 52.648 35.138 52.944C35.36 51.988 35.756 51.056 36.164 50.094C36.39 49.564 36.63 49 36.856 48.39L37.18 47.536C38.066 45.226 38.98 42.836 38.998 38.13C39.006 36.32 38.784 34.254 38.362 32.002ZM66.694 39.014C66.486 37.556 66.272 36.046 66.324 34.408C66.37 32.924 66.534 31.524 66.692 30.17C66.816 29.104 66.912 28.08 66.968 27.07C64.39 27.284 62.678 28.028 61.866 29.286C62.202 29.172 62.582 29.082 63.002 29.028C64.786 28.796 66.088 29.31 66.238 30.302C66.348 31.028 65.732 31.712 65.462 31.974C64.908 32.512 64.21 32.858 63.5 32.95C63.372 32.966 63.242 32.974 63.116 32.974C62.41 32.974 61.736 32.732 61.218 32.374C61.442 36.32 64.352 41.598 65.784 44.188C66.09 44.742 66.326 45.184 66.522 45.564C67.308 43.326 67.018 41.286 66.694 39.014Z" fill="white"/>
</svg>
