<svg width="139" height="139" viewBox="0 0 139 139" fill="none" xmlns="http://www.w3.org/2000/svg">
<path d="M135.671 1.08594H44.3132V46.8919H89.2654C90.8668 46.8919 92.166 48.1911 92.166 49.7925V94.1242H138.571V3.99189C138.573 3.22167 138.268 2.48252 137.723 1.93739C137.179 1.39227 136.441 1.08594 135.671 1.08594Z" fill="white"/>
<path opacity="0.92" d="M0.783552 44.7607L0.783589 44.7606L43.808 2.28223V46.3919H1.45133C1.06507 46.3912 0.717426 46.1574 0.571087 45.7999C0.424746 45.4425 0.508658 45.032 0.783552 44.7607ZM92.6661 94.6242H137.353L94.286 137.13L94.2254 137.19C93.9544 137.413 93.5794 137.471 93.2512 137.333C92.8974 137.185 92.6668 136.84 92.6661 136.456V94.6242Z" fill="white" stroke="white"/>
<path opacity="0.92" d="M91.6661 48.3395V93.6242H47.2139C45.8881 93.6242 44.8133 92.5494 44.8133 91.2236V47.3918H90.7184C91.2389 47.3918 91.6661 47.8161 91.6661 48.3395Z" fill="white" stroke="white"/>
</svg>
